# xmcd
#
# Track frame offsets: 
#        150
#        16164
#        33764
#        63504
#        77044
#        100311
#
# Disc length: 1610 seconds
#
# Revision: 1
# Processed by: cddbd v1.5.2PL0 Copyright (c) Steve Scherf et al.
# Submitted via: ExactAudioCopy v1.3
#
DISCID=3d064806
DTITLE=Beyoncé - Beyoncé
DYEAR=2014
DGENRE=R&B
TTITLE0=7⁄11 (Clean Edit)
TTITLE1=Beyoncé Feat. Nicki Minaj - Flawless (Remix) (Clean Edit)
TTITLE2=Beyoncé Feat. Jay-Z and Kanye West - Drunk in Love (Remix) (Clea
TTITLE2=n Edit)
TTITLE3=Ring Off (Clean Edit)
TTITLE4=Beyoncé Feat. Pharell - Blow (Remix) (Clean Edit)
TTITLE5=Beyoncé Feat. Mr. Vegas - Standing on the Sun (Remix) (Clean E
TTITLE5=dit)
EXTD=
EXTT0=
EXTT1=
EXTT2=
EXTT3=
EXTT4=
EXTT5=
PLAYORDER=
